<svg width="155" height="182" viewBox="0 0 155 182" fill="none" xmlns="http://www.w3.org/2000/svg">
<g clip-path="url(#clip0_0_438)">
<rect width="155" height="182" rx="8" fill="#F39E9E"/>
<path d="M24.0318 153H27.5598L28.8558 149.16H35.7678L37.0398 153H40.5918L34.4238 135.12H30.1998L24.0318 153ZM29.7918 146.28L32.3118 138.744L34.8318 146.28H29.7918ZM42.3178 157.8H45.4618V151.752C45.9418 152.248 46.5258 152.632 47.2138 152.904C47.9018 153.16 48.6458 153.288 49.4458 153.288C50.7098 153.288 51.8378 152.992 52.8298 152.4C53.8218 151.792 54.6058 150.976 55.1818 149.952C55.7578 148.912 56.0458 147.752 56.0458 146.472C56.0458 145.192 55.7578 144.04 55.1818 143.016C54.6058 141.976 53.8218 141.16 52.8298 140.568C51.8378 139.96 50.7178 139.656 49.4698 139.656C48.5738 139.656 47.7658 139.816 47.0458 140.136C46.3258 140.456 45.7338 140.904 45.2698 141.48V139.944H42.3178V157.8ZM49.0858 150.408C48.3978 150.408 47.7738 150.24 47.2138 149.904C46.6698 149.568 46.2378 149.104 45.9178 148.512C45.6138 147.92 45.4618 147.24 45.4618 146.472C45.4618 145.704 45.6138 145.024 45.9178 144.432C46.2378 143.84 46.6698 143.376 47.2138 143.04C47.7738 142.704 48.3978 142.536 49.0858 142.536C49.8058 142.536 50.4378 142.712 50.9818 143.064C51.5418 143.4 51.9818 143.864 52.3018 144.456C52.6218 145.048 52.7818 145.72 52.7818 146.472C52.7818 147.224 52.6218 147.904 52.3018 148.512C51.9818 149.104 51.5418 149.568 50.9818 149.904C50.4378 150.24 49.8058 150.408 49.0858 150.408ZM58.4428 157.8H61.5868V151.752C62.0668 152.248 62.6508 152.632 63.3388 152.904C64.0268 153.16 64.7708 153.288 65.5708 153.288C66.8348 153.288 67.9628 152.992 68.9548 152.4C69.9468 151.792 70.7308 150.976 71.3068 149.952C71.8828 148.912 72.1708 147.752 72.1708 146.472C72.1708 145.192 71.8828 144.04 71.3068 143.016C70.7308 141.976 69.9468 141.16 68.9548 140.568C67.9628 139.96 66.8428 139.656 65.5948 139.656C64.6988 139.656 63.8908 139.816 63.1708 140.136C62.4508 140.456 61.8588 140.904 61.3948 141.48V139.944H58.4428V157.8ZM65.2108 150.408C64.5228 150.408 63.8988 150.24 63.3388 149.904C62.7948 149.568 62.3628 149.104 62.0428 148.512C61.7388 147.92 61.5868 147.24 61.5868 146.472C61.5868 145.704 61.7388 145.024 62.0428 144.432C62.3628 143.84 62.7948 143.376 63.3388 143.04C63.8988 142.704 64.5228 142.536 65.2108 142.536C65.9308 142.536 66.5628 142.712 67.1068 143.064C67.6668 143.4 68.1068 143.864 68.4268 144.456C68.7468 145.048 68.9068 145.72 68.9068 146.472C68.9068 147.224 68.7468 147.904 68.4268 148.512C68.1068 149.104 67.6668 149.568 67.1068 149.904C66.5628 150.24 65.9308 150.408 65.2108 150.408ZM79.5358 153.288C80.5278 153.288 81.3918 153.12 82.1278 152.784C82.8638 152.448 83.4398 151.984 83.8558 151.392C84.2718 150.784 84.4798 150.088 84.4798 149.304C84.4798 148.392 84.1918 147.608 83.6158 146.952C83.0398 146.296 82.2078 145.816 81.1198 145.512L79.0318 144.888C78.5838 144.76 78.2158 144.592 77.9278 144.384C77.6398 144.176 77.4958 143.888 77.4958 143.52C77.4958 143.136 77.6478 142.824 77.9518 142.584C78.2558 142.344 78.6718 142.224 79.1998 142.224C79.8558 142.224 80.4478 142.4 80.9758 142.752C81.5198 143.104 81.8958 143.576 82.1038 144.168L84.5038 143.04C84.1038 141.984 83.4318 141.16 82.4878 140.568C81.5438 139.96 80.4558 139.656 79.2238 139.656C78.2798 139.656 77.4398 139.824 76.7038 140.16C75.9838 140.496 75.4158 140.968 74.9998 141.576C74.5998 142.168 74.3998 142.864 74.3998 143.664C74.3998 144.56 74.6798 145.336 75.2398 145.992C75.8158 146.648 76.6558 147.136 77.7598 147.456L79.8958 148.056C80.3118 148.168 80.6638 148.336 80.9518 148.56C81.2558 148.768 81.4078 149.056 81.4078 149.424C81.4078 149.856 81.2318 150.2 80.8798 150.456C80.5438 150.696 80.0958 150.816 79.5358 150.816C78.7998 150.816 78.1358 150.608 77.5438 150.192C76.9518 149.776 76.4798 149.2 76.1278 148.464L73.7758 149.592C74.1598 150.712 74.8638 151.608 75.8878 152.28C76.9278 152.952 78.1438 153.288 79.5358 153.288Z" fill="white"/>
<rect x="69.8689" y="56" width="64" height="32" rx="16" fill="#552049"/>
<circle cx="117.869" cy="72" r="14" stroke="#FFF7F0" stroke-width="4"/>
<rect x="69.8689" y="38" width="4" height="4" fill="#030303"/>
<rect x="73.8689" y="38" width="4" height="4" fill="#030303"/>
<rect x="97.8689" y="38" width="4" height="4" fill="#030303"/>
<path fill-rule="evenodd" clip-rule="evenodd" d="M101.869 24L133.869 56V24H101.869Z" fill="#755CDE"/>
<rect x="101.869" y="38" width="4" height="4" fill="#030303"/>
<rect x="125.869" y="38" width="4" height="4" fill="#030303"/>
<rect x="129.869" y="38" width="4" height="4" fill="#030303"/>
</g>
<defs>
<clipPath id="clip0_0_438">
<rect width="155" height="182" fill="white"/>
</clipPath>
</defs>
</svg>
