<svg width="333" height="364" viewBox="0 0 333 364" fill="none" xmlns="http://www.w3.org/2000/svg">
<g clip-path="url(#clip0_0_331)">
<rect width="333" height="364" rx="8" fill="#755CDE"/>
<rect x="181" y="24" width="64" height="128" fill="#552049"/>
<circle cx="213" cy="56" r="14" stroke="#FFF7F0" stroke-width="4"/>
<rect x="245" y="56" width="64" height="32" rx="16" fill="#F6A560"/>
<path fill-rule="evenodd" clip-rule="evenodd" d="M213 184L245 216V184H213Z" fill="#61C4B7"/>
<path fill-rule="evenodd" clip-rule="evenodd" d="M245 152L277 184V152H245Z" fill="#61C4B7"/>
<circle cx="293" cy="72" r="14" stroke="#FFF7F0" stroke-width="4"/>
<circle cx="293" cy="72" r="14" stroke="#FFF7F0" stroke-width="4"/>
<rect x="245" y="38" width="4" height="4" fill="#030303"/>
<rect x="249" y="38" width="4" height="4" fill="#030303"/>
<rect x="273" y="38" width="4" height="4" fill="#030303"/>
<path fill-rule="evenodd" clip-rule="evenodd" d="M277 24L309 56V24H277Z" fill="#755CDE"/>
<rect x="277" y="38" width="4" height="4" fill="#030303"/>
<rect x="301" y="38" width="4" height="4" fill="#030303"/>
<rect x="305" y="38" width="4" height="4" fill="#030303"/>
<circle cx="261" cy="104" r="14" stroke="#030303" stroke-width="4"/>
<rect x="277" y="88" width="32" height="32" fill="#EB7565"/>
<path fill-rule="evenodd" clip-rule="evenodd" d="M213 120L309 216V120H213Z" fill="#FFF7F0"/>
<rect x="181" y="152" width="4" height="4" fill="#030303"/>
<rect x="195" y="152" width="4" height="4" fill="#030303"/>
<rect x="209" y="152" width="4" height="4" fill="#030303"/>
<rect x="181" y="166" width="4" height="4" fill="#030303"/>
<rect x="195" y="166" width="4" height="4" fill="#030303"/>
<rect x="209" y="166" width="4" height="4" fill="#030303"/>
<rect x="181" y="180" width="4" height="4" fill="#030303"/>
<rect x="195" y="180" width="4" height="4" fill="#030303"/>
<rect x="209" y="180" width="4" height="4" fill="#030303"/>
<path d="M34.2 335.288C35.256 335.288 36.28 335.112 37.272 334.76C38.264 334.392 39.152 333.856 39.936 333.152C40.736 332.432 41.368 331.552 41.832 330.512C42.296 329.456 42.528 328.232 42.528 326.84V325.04H34.128V327.8H39.264V327.872C39.264 328.784 39.032 329.576 38.568 330.248C38.104 330.904 37.488 331.416 36.72 331.784C35.952 332.136 35.112 332.312 34.2 332.312C33.08 332.312 32.088 332.048 31.224 331.52C30.36 330.992 29.68 330.264 29.184 329.336C28.704 328.392 28.464 327.296 28.464 326.048C28.464 324.8 28.704 323.712 29.184 322.784C29.664 321.84 30.328 321.112 31.176 320.6C32.024 320.072 33.008 319.808 34.128 319.808C35.264 319.808 36.232 320.096 37.032 320.672C37.832 321.248 38.408 322 38.76 322.928L41.664 321.536C41.36 320.688 40.856 319.912 40.152 319.208C39.448 318.488 38.584 317.912 37.56 317.48C36.552 317.048 35.408 316.832 34.128 316.832C32.848 316.832 31.664 317.064 30.576 317.528C29.488 317.976 28.544 318.616 27.744 319.448C26.944 320.264 26.32 321.24 25.872 322.376C25.424 323.496 25.2 324.72 25.2 326.048C25.2 327.376 25.424 328.608 25.872 329.744C26.336 330.864 26.976 331.84 27.792 332.672C28.608 333.504 29.56 334.152 30.648 334.616C31.736 335.064 32.92 335.288 34.2 335.288ZM44.8468 335H47.9908V327.728C47.9908 326.736 48.2628 325.968 48.8068 325.424C49.3668 324.864 50.0868 324.584 50.9668 324.584H52.0948V321.8H51.3268C50.5268 321.8 49.8228 321.944 49.2148 322.232C48.6068 322.52 48.1348 323.04 47.7988 323.792V321.944H44.8468V335ZM57.7834 335.288C59.4794 335.288 60.8394 334.728 61.8634 333.608V335H64.8394V326.312C64.8394 325.4 64.6074 324.592 64.1434 323.888C63.6794 323.184 63.0394 322.64 62.2234 322.256C61.4234 321.856 60.4874 321.656 59.4154 321.656C58.1034 321.656 56.9354 321.968 55.9114 322.592C54.8874 323.216 54.1834 324.04 53.7994 325.064L56.3674 326.312C56.6074 325.72 56.9834 325.248 57.4954 324.896C58.0074 324.528 58.6074 324.344 59.2954 324.344C60.0154 324.344 60.5914 324.536 61.0234 324.92C61.4714 325.288 61.6954 325.752 61.6954 326.312V326.744L57.8074 327.368C56.2714 327.624 55.1354 328.112 54.3994 328.832C53.6634 329.552 53.2954 330.456 53.2954 331.544C53.2954 332.696 53.7034 333.608 54.5194 334.28C55.3354 334.952 56.4234 335.288 57.7834 335.288ZM56.5594 331.424C56.5594 330.512 57.1754 329.936 58.4074 329.696L61.6954 329.144V329.672C61.6954 330.568 61.3834 331.328 60.7594 331.952C60.1514 332.576 59.3514 332.888 58.3594 332.888C57.8314 332.888 57.3994 332.76 57.0634 332.504C56.7274 332.232 56.5594 331.872 56.5594 331.424ZM67.7453 339.8H70.8893V333.752C71.3693 334.248 71.9533 334.632 72.6413 334.904C73.3293 335.16 74.0733 335.288 74.8733 335.288C76.1373 335.288 77.2653 334.992 78.2573 334.4C79.2493 333.792 80.0333 332.976 80.6093 331.952C81.1853 330.912 81.4733 329.752 81.4733 328.472C81.4733 327.192 81.1853 326.04 80.6093 325.016C80.0333 323.976 79.2493 323.16 78.2573 322.568C77.2653 321.96 76.1453 321.656 74.8973 321.656C74.0013 321.656 73.1933 321.816 72.4733 322.136C71.7533 322.456 71.1613 322.904 70.6973 323.48V321.944H67.7453V339.8ZM74.5133 332.408C73.8253 332.408 73.2013 332.24 72.6413 331.904C72.0973 331.568 71.6653 331.104 71.3453 330.512C71.0413 329.92 70.8893 329.24 70.8893 328.472C70.8893 327.704 71.0413 327.024 71.3453 326.432C71.6653 325.84 72.0973 325.376 72.6413 325.04C73.2013 324.704 73.8253 324.536 74.5133 324.536C75.2333 324.536 75.8653 324.712 76.4093 325.064C76.9693 325.4 77.4093 325.864 77.7293 326.456C78.0493 327.048 78.2093 327.72 78.2093 328.472C78.2093 329.224 78.0493 329.904 77.7293 330.512C77.4093 331.104 76.9693 331.568 76.4093 331.904C75.8653 332.24 75.2333 332.408 74.5133 332.408ZM83.8703 335H87.0143V327.344C87.0143 326.496 87.2623 325.816 87.7583 325.304C88.2543 324.792 88.8863 324.536 89.6543 324.536C90.4223 324.536 91.0543 324.792 91.5503 325.304C92.0463 325.8 92.2943 326.48 92.2943 327.344V335H95.4383V326.6C95.4383 325.624 95.2303 324.768 94.8143 324.032C94.3983 323.28 93.8143 322.696 93.0623 322.28C92.3263 321.864 91.4783 321.656 90.5183 321.656C89.7663 321.656 89.0863 321.792 88.4783 322.064C87.8703 322.32 87.3823 322.712 87.0143 323.24V316.832H83.8703V335ZM98.0968 320.48H101.241V317.12H98.0968V320.48ZM98.0968 335H101.241V321.944H98.0968V335ZM110.432 335.288C111.376 335.288 112.248 335.128 113.048 334.808C113.848 334.472 114.536 334.016 115.112 333.44C115.688 332.848 116.104 332.184 116.36 331.448L113.6 330.2C113.344 330.888 112.936 331.432 112.376 331.832C111.832 332.216 111.184 332.408 110.432 332.408C109.744 332.408 109.128 332.24 108.584 331.904C108.056 331.568 107.64 331.104 107.336 330.512C107.032 329.904 106.88 329.224 106.88 328.472C106.88 327.704 107.032 327.024 107.336 326.432C107.64 325.84 108.056 325.376 108.584 325.04C109.128 324.704 109.744 324.536 110.432 324.536C111.184 324.536 111.832 324.736 112.376 325.136C112.936 325.536 113.344 326.064 113.6 326.72L116.36 325.52C116.088 324.752 115.664 324.08 115.088 323.504C114.512 322.912 113.824 322.456 113.024 322.136C112.224 321.816 111.36 321.656 110.432 321.656C109.136 321.656 107.968 321.952 106.928 322.544C105.904 323.136 105.096 323.944 104.504 324.968C103.912 325.992 103.616 327.152 103.616 328.448C103.616 329.744 103.912 330.912 104.504 331.952C105.096 332.976 105.904 333.792 106.928 334.4C107.968 334.992 109.136 335.288 110.432 335.288ZM123.275 335H129.107C130.995 335 132.635 334.616 134.027 333.848C135.435 333.08 136.523 332.024 137.291 330.68C138.059 329.336 138.443 327.792 138.443 326.048C138.443 324.288 138.059 322.744 137.291 321.416C136.523 320.072 135.443 319.024 134.051 318.272C132.659 317.504 131.011 317.12 129.107 317.12H123.275V335ZM126.539 332.12V320H129.179C130.395 320 131.443 320.248 132.323 320.744C133.219 321.24 133.915 321.944 134.411 322.856C134.907 323.752 135.155 324.816 135.155 326.048C135.155 327.28 134.907 328.352 134.411 329.264C133.931 330.176 133.243 330.88 132.347 331.376C131.451 331.872 130.395 332.12 129.179 332.12H126.539ZM146.969 335.288C148.297 335.288 149.457 334.992 150.449 334.4C151.457 333.792 152.161 333.024 152.561 332.096L150.017 330.848C149.729 331.344 149.329 331.752 148.817 332.072C148.321 332.376 147.713 332.528 146.993 332.528C146.049 332.528 145.257 332.24 144.617 331.664C143.977 331.088 143.609 330.32 143.513 329.36H152.921C152.985 329.184 153.025 328.984 153.041 328.76C153.073 328.52 153.089 328.28 153.089 328.04C153.089 326.872 152.841 325.808 152.345 324.848C151.849 323.888 151.129 323.12 150.185 322.544C149.241 321.952 148.089 321.656 146.729 321.656C145.513 321.656 144.409 321.952 143.417 322.544C142.441 323.136 141.665 323.944 141.089 324.968C140.529 325.976 140.249 327.136 140.249 328.448C140.249 329.712 140.529 330.864 141.089 331.904C141.649 332.944 142.433 333.768 143.441 334.376C144.449 334.984 145.625 335.288 146.969 335.288ZM146.729 324.248C147.561 324.248 148.249 324.504 148.793 325.016C149.353 325.512 149.665 326.16 149.729 326.96H143.585C143.761 326.096 144.129 325.432 144.689 324.968C145.265 324.488 145.945 324.248 146.729 324.248ZM160.44 335.288C161.432 335.288 162.296 335.12 163.032 334.784C163.768 334.448 164.344 333.984 164.76 333.392C165.176 332.784 165.384 332.088 165.384 331.304C165.384 330.392 165.096 329.608 164.52 328.952C163.944 328.296 163.112 327.816 162.024 327.512L159.936 326.888C159.488 326.76 159.12 326.592 158.832 326.384C158.544 326.176 158.4 325.888 158.4 325.52C158.4 325.136 158.552 324.824 158.856 324.584C159.16 324.344 159.576 324.224 160.104 324.224C160.76 324.224 161.352 324.4 161.88 324.752C162.424 325.104 162.8 325.576 163.008 326.168L165.408 325.04C165.008 323.984 164.336 323.16 163.392 322.568C162.448 321.96 161.36 321.656 160.128 321.656C159.184 321.656 158.344 321.824 157.608 322.16C156.888 322.496 156.32 322.968 155.904 323.576C155.504 324.168 155.304 324.864 155.304 325.664C155.304 326.56 155.584 327.336 156.144 327.992C156.72 328.648 157.56 329.136 158.664 329.456L160.8 330.056C161.216 330.168 161.568 330.336 161.856 330.56C162.16 330.768 162.312 331.056 162.312 331.424C162.312 331.856 162.136 332.2 161.784 332.456C161.448 332.696 161 332.816 160.44 332.816C159.704 332.816 159.04 332.608 158.448 332.192C157.856 331.776 157.384 331.2 157.032 330.464L154.68 331.592C155.064 332.712 155.768 333.608 156.792 334.28C157.832 334.952 159.048 335.288 160.44 335.288ZM167.8 320.48H170.944V317.12H167.8V320.48ZM167.8 335H170.944V321.944H167.8V335ZM180.183 340.28C181.431 340.28 182.535 340.024 183.495 339.512C184.455 339 185.207 338.296 185.751 337.4C186.295 336.504 186.567 335.488 186.567 334.352V321.944H183.591V323.456C182.599 322.256 181.263 321.656 179.583 321.656C178.383 321.656 177.311 321.936 176.367 322.496C175.423 323.04 174.679 323.792 174.135 324.752C173.591 325.712 173.319 326.808 173.319 328.04C173.319 329.256 173.591 330.352 174.135 331.328C174.679 332.304 175.431 333.072 176.391 333.632C177.351 334.192 178.439 334.472 179.655 334.472C181.239 334.472 182.495 333.96 183.423 332.936V334.352C183.423 335.312 183.119 336.056 182.511 336.584C181.903 337.128 181.127 337.4 180.183 337.4C179.351 337.4 178.647 337.208 178.071 336.824C177.511 336.456 177.135 335.968 176.943 335.36L174.015 336.464C174.431 337.616 175.191 338.536 176.295 339.224C177.415 339.928 178.711 340.28 180.183 340.28ZM180.039 331.568C179.031 331.568 178.199 331.24 177.543 330.584C176.903 329.912 176.583 329.072 176.583 328.064C176.583 327.392 176.727 326.792 177.015 326.264C177.319 325.72 177.735 325.296 178.263 324.992C178.791 324.688 179.383 324.536 180.039 324.536C181.031 324.536 181.839 324.872 182.463 325.544C183.103 326.2 183.423 327.04 183.423 328.064C183.423 329.088 183.103 329.928 182.463 330.584C181.839 331.24 181.031 331.568 180.039 331.568ZM189.503 335H192.647V327.344C192.647 326.496 192.887 325.816 193.367 325.304C193.863 324.792 194.503 324.536 195.287 324.536C196.071 324.536 196.703 324.792 197.183 325.304C197.679 325.8 197.927 326.48 197.927 327.344V335H201.071V326.6C201.071 325.624 200.863 324.768 200.447 324.032C200.031 323.28 199.447 322.696 198.695 322.28C197.959 321.864 197.111 321.656 196.151 321.656C195.335 321.656 194.599 321.816 193.943 322.136C193.303 322.456 192.807 322.928 192.455 323.552V321.944H189.503V335Z" fill="white"/>
</g>
<defs>
<clipPath id="clip0_0_331">
<rect width="333" height="364" fill="white"/>
</clipPath>
</defs>
</svg>
