<svg width="355" height="158" viewBox="0 0 355 158" fill="none" xmlns="http://www.w3.org/2000/svg">
<g clip-path="url(#clip0_0_735)">
<rect x="0.0874023" width="354" height="158" rx="8" fill="#EB7565"/>
<circle cx="313" cy="40" r="14" stroke="#FFF7F0" stroke-width="4"/>
<rect x="265" y="24" width="32" height="32" fill="#755CDE"/>
<rect x="297" y="56" width="4" height="4" fill="#030303"/>
<rect x="311" y="56" width="4" height="4" fill="#030303"/>
<rect x="325" y="56" width="4" height="4" fill="#030303"/>
<rect x="297" y="70" width="4" height="4" fill="#030303"/>
<rect x="311" y="70" width="4" height="4" fill="#030303"/>
<rect x="325" y="70" width="4" height="4" fill="#030303"/>
<rect x="297" y="84" width="4" height="4" fill="#030303"/>
<rect x="311" y="84" width="4" height="4" fill="#030303"/>
<rect x="325" y="84" width="4" height="4" fill="#030303"/>
<path fill-rule="evenodd" clip-rule="evenodd" d="M265 56L297 88V56H265Z" fill="#F39E9E"/>
<rect x="233" y="56" width="4" height="4" fill="#030303"/>
<rect x="247" y="56" width="4" height="4" fill="#030303"/>
<rect x="261" y="56" width="4" height="4" fill="#030303"/>
<rect x="233" y="80" width="4" height="4" fill="#030303"/>
<rect x="247" y="80" width="4" height="4" fill="#030303"/>
<rect x="261" y="80" width="4" height="4" fill="#030303"/>
<rect x="233" y="84" width="4" height="4" fill="#030303"/>
<rect x="247" y="84" width="4" height="4" fill="#030303"/>
<rect x="261" y="84" width="4" height="4" fill="#030303"/>
<rect x="233" y="24" width="4" height="4" fill="#030303"/>
<rect x="247" y="24" width="4" height="4" fill="#030303"/>
<rect x="261" y="24" width="4" height="4" fill="#030303"/>
<rect x="233" y="28" width="4" height="4" fill="#030303"/>
<rect x="247" y="28" width="4" height="4" fill="#030303"/>
<rect x="261" y="28" width="4" height="4" fill="#030303"/>
<rect x="233" y="52" width="4" height="4" fill="#030303"/>
<rect x="247" y="52" width="4" height="4" fill="#030303"/>
<rect x="261" y="52" width="4" height="4" fill="#030303"/>
<path fill-rule="evenodd" clip-rule="evenodd" d="M201 56L233 88V56H201Z" fill="#61C4B7"/>
<path fill-rule="evenodd" clip-rule="evenodd" d="M233 24L201 56V24H233Z" fill="#FFF7F0"/>
<path d="M25.8154 129H29.0794V111.12H25.8154V129ZM32.2545 129H35.3985V110.832H32.2545V129ZM38.3014 129H41.4454V110.832H38.3014V129ZM49.0043 129.288C49.8203 129.288 50.5403 129.136 51.1643 128.832C51.8043 128.512 52.3083 128.048 52.6763 127.44V129H55.6523V115.944H52.5083V123.6C52.5083 124.464 52.2603 125.152 51.7643 125.664C51.2683 126.16 50.6363 126.408 49.8683 126.408C49.0843 126.408 48.4443 126.16 47.9483 125.664C47.4683 125.168 47.2283 124.504 47.2283 123.672V115.944H44.0843V123.936C44.0843 125.536 44.5163 126.832 45.3803 127.824C46.2603 128.8 47.4683 129.288 49.0043 129.288ZM63.5428 129.288C64.5348 129.288 65.3988 129.12 66.1348 128.784C66.8708 128.448 67.4468 127.984 67.8628 127.392C68.2788 126.784 68.4868 126.088 68.4868 125.304C68.4868 124.392 68.1988 123.608 67.6228 122.952C67.0468 122.296 66.2148 121.816 65.1268 121.512L63.0388 120.888C62.5908 120.76 62.2228 120.592 61.9348 120.384C61.6468 120.176 61.5028 119.888 61.5028 119.52C61.5028 119.136 61.6548 118.824 61.9588 118.584C62.2628 118.344 62.6788 118.224 63.2068 118.224C63.8628 118.224 64.4548 118.4 64.9828 118.752C65.5268 119.104 65.9028 119.576 66.1108 120.168L68.5108 119.04C68.1108 117.984 67.4388 117.16 66.4948 116.568C65.5508 115.96 64.4628 115.656 63.2308 115.656C62.2868 115.656 61.4468 115.824 60.7108 116.16C59.9908 116.496 59.4228 116.968 59.0068 117.576C58.6068 118.168 58.4068 118.864 58.4068 119.664C58.4068 120.56 58.6868 121.336 59.2468 121.992C59.8228 122.648 60.6628 123.136 61.7668 123.456L63.9028 124.056C64.3188 124.168 64.6708 124.336 64.9588 124.56C65.2628 124.768 65.4148 125.056 65.4148 125.424C65.4148 125.856 65.2388 126.2 64.8868 126.456C64.5508 126.696 64.1028 126.816 63.5428 126.816C62.8068 126.816 62.1428 126.608 61.5508 126.192C60.9588 125.776 60.4868 125.2 60.1348 124.464L57.7828 125.592C58.1668 126.712 58.8708 127.608 59.8948 128.28C60.9348 128.952 62.1508 129.288 63.5428 129.288ZM76.855 129.144C77.383 129.144 77.903 129.104 78.415 129.024V126.312C78.111 126.36 77.831 126.384 77.575 126.384C76.807 126.384 76.247 126.208 75.895 125.856C75.543 125.504 75.367 125 75.367 124.344V118.752H78.367V115.944H75.367V112.968H72.223V113.976C72.223 114.616 72.047 115.104 71.695 115.44C71.343 115.776 70.847 115.944 70.207 115.944H69.967V118.752H72.223V124.512C72.223 125.968 72.623 127.104 73.423 127.92C74.239 128.736 75.383 129.144 76.855 129.144ZM80.817 129H83.961V121.728C83.961 120.736 84.233 119.968 84.777 119.424C85.337 118.864 86.057 118.584 86.937 118.584H88.065V115.8H87.297C86.497 115.8 85.793 115.944 85.185 116.232C84.577 116.52 84.105 117.04 83.769 117.792V115.944H80.817V129ZM93.7536 129.288C95.4496 129.288 96.8096 128.728 97.8336 127.608V129H100.81V120.312C100.81 119.4 100.578 118.592 100.114 117.888C99.6496 117.184 99.0096 116.64 98.1936 116.256C97.3936 115.856 96.4576 115.656 95.3856 115.656C94.0736 115.656 92.9056 115.968 91.8816 116.592C90.8576 117.216 90.1536 118.04 89.7696 119.064L92.3376 120.312C92.5776 119.72 92.9536 119.248 93.4656 118.896C93.9776 118.528 94.5776 118.344 95.2656 118.344C95.9856 118.344 96.5616 118.536 96.9936 118.92C97.4416 119.288 97.6656 119.752 97.6656 120.312V120.744L93.7776 121.368C92.2416 121.624 91.1056 122.112 90.3696 122.832C89.6336 123.552 89.2656 124.456 89.2656 125.544C89.2656 126.696 89.6736 127.608 90.4896 128.28C91.3056 128.952 92.3936 129.288 93.7536 129.288ZM92.5296 125.424C92.5296 124.512 93.1456 123.936 94.3776 123.696L97.6656 123.144V123.672C97.6656 124.568 97.3536 125.328 96.7296 125.952C96.1216 126.576 95.3216 126.888 94.3296 126.888C93.8016 126.888 93.3696 126.76 93.0336 126.504C92.6976 126.232 92.5296 125.872 92.5296 125.424ZM109.433 129.144C109.961 129.144 110.481 129.104 110.993 129.024V126.312C110.689 126.36 110.409 126.384 110.153 126.384C109.385 126.384 108.825 126.208 108.473 125.856C108.121 125.504 107.945 125 107.945 124.344V118.752H110.945V115.944H107.945V112.968H104.801V113.976C104.801 114.616 104.625 115.104 104.273 115.44C103.921 115.776 103.425 115.944 102.785 115.944H102.545V118.752H104.801V124.512C104.801 125.968 105.201 127.104 106.001 127.92C106.817 128.736 107.961 129.144 109.433 129.144ZM113.395 114.48H116.539V111.12H113.395V114.48ZM113.395 129H116.539V115.944H113.395V129ZM125.826 129.288C127.09 129.288 128.242 129 129.282 128.424C130.322 127.832 131.154 127.024 131.778 126C132.402 124.96 132.714 123.784 132.714 122.472C132.714 121.16 132.402 119.992 131.778 118.968C131.17 117.944 130.346 117.136 129.306 116.544C128.266 115.952 127.106 115.656 125.826 115.656C124.53 115.656 123.362 115.952 122.322 116.544C121.282 117.136 120.45 117.944 119.826 118.968C119.218 119.992 118.914 121.16 118.914 122.472C118.914 123.784 119.218 124.952 119.826 125.976C120.45 127 121.282 127.808 122.322 128.4C123.378 128.992 124.546 129.288 125.826 129.288ZM125.826 126.408C125.122 126.408 124.49 126.24 123.93 125.904C123.386 125.568 122.954 125.104 122.634 124.512C122.33 123.904 122.178 123.224 122.178 122.472C122.178 121.72 122.33 121.048 122.634 120.456C122.954 119.864 123.386 119.4 123.93 119.064C124.49 118.712 125.122 118.536 125.826 118.536C126.53 118.536 127.146 118.712 127.674 119.064C128.218 119.4 128.642 119.864 128.946 120.456C129.266 121.048 129.426 121.72 129.426 122.472C129.426 123.224 129.266 123.904 128.946 124.512C128.642 125.104 128.218 125.568 127.674 125.904C127.146 126.24 126.53 126.408 125.826 126.408ZM135.098 129H138.242V121.344C138.242 120.496 138.482 119.816 138.962 119.304C139.458 118.792 140.098 118.536 140.882 118.536C141.666 118.536 142.298 118.792 142.778 119.304C143.274 119.8 143.522 120.48 143.522 121.344V129H146.666V120.6C146.666 119.624 146.458 118.768 146.042 118.032C145.626 117.28 145.042 116.696 144.29 116.28C143.554 115.864 142.706 115.656 141.746 115.656C140.93 115.656 140.194 115.816 139.538 116.136C138.898 116.456 138.402 116.928 138.05 117.552V115.944H135.098V129ZM154.293 129.288C155.285 129.288 156.149 129.12 156.885 128.784C157.621 128.448 158.197 127.984 158.613 127.392C159.029 126.784 159.237 126.088 159.237 125.304C159.237 124.392 158.949 123.608 158.373 122.952C157.797 122.296 156.965 121.816 155.877 121.512L153.789 120.888C153.341 120.76 152.973 120.592 152.685 120.384C152.397 120.176 152.253 119.888 152.253 119.52C152.253 119.136 152.405 118.824 152.709 118.584C153.013 118.344 153.429 118.224 153.957 118.224C154.613 118.224 155.205 118.4 155.733 118.752C156.277 119.104 156.653 119.576 156.861 120.168L159.261 119.04C158.861 117.984 158.189 117.16 157.245 116.568C156.301 115.96 155.213 115.656 153.981 115.656C153.037 115.656 152.197 115.824 151.461 116.16C150.741 116.496 150.173 116.968 149.757 117.576C149.357 118.168 149.157 118.864 149.157 119.664C149.157 120.56 149.437 121.336 149.997 121.992C150.573 122.648 151.413 123.136 152.517 123.456L154.653 124.056C155.069 124.168 155.421 124.336 155.709 124.56C156.013 124.768 156.165 125.056 156.165 125.424C156.165 125.856 155.989 126.2 155.637 126.456C155.301 126.696 154.853 126.816 154.293 126.816C153.557 126.816 152.893 126.608 152.301 126.192C151.709 125.776 151.237 125.2 150.885 124.464L148.533 125.592C148.917 126.712 149.621 127.608 150.645 128.28C151.685 128.952 152.901 129.288 154.293 129.288Z" fill="white"/>
</g>
<defs>
<clipPath id="clip0_0_735">
<rect width="354" height="158" fill="white" transform="translate(0.0874023)"/>
</clipPath>
</defs>
</svg>
