<svg width="354" height="158" viewBox="0 0 354 158" fill="none" xmlns="http://www.w3.org/2000/svg">
<g clip-path="url(#clip0_0_718)">
<rect width="354" height="158" rx="8" fill="#552049"/>
<circle cx="282" cy="40" r="14" stroke="#F39E9E" stroke-width="4"/>
<circle cx="250" cy="40" r="14" stroke="#F39E9E" stroke-opacity="0.5" stroke-width="4"/>
<circle cx="218" cy="40" r="14" stroke="#F39E9E" stroke-opacity="0.25" stroke-width="4"/>
<circle cx="314" cy="40" r="14" stroke="#FFF7F0" stroke-width="4"/>
<path fill-rule="evenodd" clip-rule="evenodd" d="M330 88L298 56V88H330Z" fill="#F39E9E"/>
<rect x="234" y="56" width="64" height="32" rx="16" fill="#F6A560"/>
<path fill-rule="evenodd" clip-rule="evenodd" d="M206 70H202V74H206H210V70H206ZM230 70H234H238V74H234H230V70ZM258 70H262H266V74H262H258V70Z" fill="#FFF7F0"/>
<path d="M25.728 129H28.992V116.616L34.536 124.2H34.92L40.44 116.856V129H43.728V111.12H40.608L34.8 119.184L28.848 111.12H25.728V129ZM53.2699 129.288C54.5339 129.288 55.6859 129 56.7259 128.424C57.7659 127.832 58.5979 127.024 59.2219 126C59.8459 124.96 60.1579 123.784 60.1579 122.472C60.1579 121.16 59.8459 119.992 59.2219 118.968C58.6139 117.944 57.7899 117.136 56.7499 116.544C55.7099 115.952 54.5499 115.656 53.2699 115.656C51.9739 115.656 50.8059 115.952 49.7659 116.544C48.7259 117.136 47.8939 117.944 47.2699 118.968C46.6619 119.992 46.3579 121.16 46.3579 122.472C46.3579 123.784 46.6619 124.952 47.2699 125.976C47.8939 127 48.7259 127.808 49.7659 128.4C50.8219 128.992 51.9899 129.288 53.2699 129.288ZM53.2699 126.408C52.5659 126.408 51.9339 126.24 51.3739 125.904C50.8299 125.568 50.3979 125.104 50.0779 124.512C49.7739 123.904 49.6219 123.224 49.6219 122.472C49.6219 121.72 49.7739 121.048 50.0779 120.456C50.3979 119.864 50.8299 119.4 51.3739 119.064C51.9339 118.712 52.5659 118.536 53.2699 118.536C53.9739 118.536 54.5899 118.712 55.1179 119.064C55.6619 119.4 56.0859 119.864 56.3899 120.456C56.7099 121.048 56.8699 121.72 56.8699 122.472C56.8699 123.224 56.7099 123.904 56.3899 124.512C56.0859 125.104 55.6619 125.568 55.1179 125.904C54.5899 126.24 53.9739 126.408 53.2699 126.408ZM68.2598 129.144C68.7878 129.144 69.3078 129.104 69.8198 129.024V126.312C69.5158 126.36 69.2358 126.384 68.9798 126.384C68.2118 126.384 67.6518 126.208 67.2998 125.856C66.9478 125.504 66.7718 125 66.7718 124.344V118.752H69.7718V115.944H66.7718V112.968H63.6278V113.976C63.6278 114.616 63.4518 115.104 63.0998 115.44C62.7478 115.776 62.2518 115.944 61.6118 115.944H61.3718V118.752H63.6278V124.512C63.6278 125.968 64.0278 127.104 64.8278 127.92C65.6438 128.736 66.7878 129.144 68.2598 129.144ZM72.2218 114.48H75.3658V111.12H72.2218V114.48ZM72.2218 129H75.3658V115.944H72.2218V129ZM84.6527 129.288C85.9167 129.288 87.0687 129 88.1087 128.424C89.1487 127.832 89.9807 127.024 90.6047 126C91.2287 124.96 91.5407 123.784 91.5407 122.472C91.5407 121.16 91.2287 119.992 90.6047 118.968C89.9967 117.944 89.1727 117.136 88.1327 116.544C87.0927 115.952 85.9327 115.656 84.6527 115.656C83.3567 115.656 82.1887 115.952 81.1487 116.544C80.1087 117.136 79.2767 117.944 78.6527 118.968C78.0447 119.992 77.7407 121.16 77.7407 122.472C77.7407 123.784 78.0447 124.952 78.6527 125.976C79.2767 127 80.1087 127.808 81.1487 128.4C82.2047 128.992 83.3727 129.288 84.6527 129.288ZM84.6527 126.408C83.9487 126.408 83.3167 126.24 82.7567 125.904C82.2127 125.568 81.7807 125.104 81.4607 124.512C81.1567 123.904 81.0047 123.224 81.0047 122.472C81.0047 121.72 81.1567 121.048 81.4607 120.456C81.7807 119.864 82.2127 119.4 82.7567 119.064C83.3167 118.712 83.9487 118.536 84.6527 118.536C85.3567 118.536 85.9727 118.712 86.5007 119.064C87.0447 119.4 87.4687 119.864 87.7727 120.456C88.0927 121.048 88.2527 121.72 88.2527 122.472C88.2527 123.224 88.0927 123.904 87.7727 124.512C87.4687 125.104 87.0447 125.568 86.5007 125.904C85.9727 126.24 85.3567 126.408 84.6527 126.408ZM93.9249 129H97.0689V121.344C97.0689 120.496 97.3089 119.816 97.7889 119.304C98.2849 118.792 98.9249 118.536 99.7089 118.536C100.493 118.536 101.125 118.792 101.605 119.304C102.101 119.8 102.349 120.48 102.349 121.344V129H105.493V120.6C105.493 119.624 105.285 118.768 104.869 118.032C104.453 117.28 103.869 116.696 103.117 116.28C102.381 115.864 101.533 115.656 100.573 115.656C99.7569 115.656 99.0209 115.816 98.3649 116.136C97.7249 116.456 97.2289 116.928 96.8769 117.552V115.944H93.9249V129ZM121.153 129.288C122.209 129.288 123.233 129.112 124.225 128.76C125.217 128.392 126.105 127.856 126.889 127.152C127.689 126.432 128.321 125.552 128.785 124.512C129.249 123.456 129.481 122.232 129.481 120.84V119.04H121.081V121.8H126.217V121.872C126.217 122.784 125.985 123.576 125.521 124.248C125.057 124.904 124.441 125.416 123.673 125.784C122.905 126.136 122.065 126.312 121.153 126.312C120.033 126.312 119.041 126.048 118.177 125.52C117.313 124.992 116.633 124.264 116.137 123.336C115.657 122.392 115.417 121.296 115.417 120.048C115.417 118.8 115.657 117.712 116.137 116.784C116.617 115.84 117.281 115.112 118.129 114.6C118.977 114.072 119.961 113.808 121.081 113.808C122.217 113.808 123.185 114.096 123.985 114.672C124.785 115.248 125.361 116 125.713 116.928L128.617 115.536C128.313 114.688 127.809 113.912 127.105 113.208C126.401 112.488 125.537 111.912 124.513 111.48C123.505 111.048 122.361 110.832 121.081 110.832C119.801 110.832 118.617 111.064 117.529 111.528C116.441 111.976 115.497 112.616 114.697 113.448C113.897 114.264 113.273 115.24 112.825 116.376C112.377 117.496 112.153 118.72 112.153 120.048C112.153 121.376 112.377 122.608 112.825 123.744C113.289 124.864 113.929 125.84 114.745 126.672C115.561 127.504 116.513 128.152 117.601 128.616C118.689 129.064 119.873 129.288 121.153 129.288ZM131.8 129H134.944V121.728C134.944 120.736 135.216 119.968 135.76 119.424C136.32 118.864 137.04 118.584 137.92 118.584H139.048V115.8H138.28C137.48 115.8 136.776 115.944 136.168 116.232C135.56 116.52 135.088 117.04 134.752 117.792V115.944H131.8V129ZM144.737 129.288C146.433 129.288 147.793 128.728 148.817 127.608V129H151.793V120.312C151.793 119.4 151.561 118.592 151.097 117.888C150.633 117.184 149.993 116.64 149.177 116.256C148.377 115.856 147.441 115.656 146.368 115.656C145.057 115.656 143.889 115.968 142.865 116.592C141.841 117.216 141.137 118.04 140.753 119.064L143.321 120.312C143.561 119.72 143.937 119.248 144.449 118.896C144.961 118.528 145.561 118.344 146.249 118.344C146.969 118.344 147.545 118.536 147.977 118.92C148.425 119.288 148.649 119.752 148.649 120.312V120.744L144.761 121.368C143.225 121.624 142.089 122.112 141.353 122.832C140.617 123.552 140.249 124.456 140.249 125.544C140.249 126.696 140.657 127.608 141.473 128.28C142.289 128.952 143.377 129.288 144.737 129.288ZM143.513 125.424C143.513 124.512 144.129 123.936 145.361 123.696L148.649 123.144V123.672C148.649 124.568 148.337 125.328 147.713 125.952C147.105 126.576 146.305 126.888 145.312 126.888C144.785 126.888 144.353 126.76 144.017 126.504C143.681 126.232 143.513 125.872 143.513 125.424ZM154.698 133.8H157.842V127.752C158.322 128.248 158.906 128.632 159.594 128.904C160.282 129.16 161.026 129.288 161.826 129.288C163.09 129.288 164.218 128.992 165.21 128.4C166.202 127.792 166.986 126.976 167.562 125.952C168.138 124.912 168.426 123.752 168.426 122.472C168.426 121.192 168.138 120.04 167.562 119.016C166.986 117.976 166.202 117.16 165.21 116.568C164.218 115.96 163.098 115.656 161.85 115.656C160.954 115.656 160.146 115.816 159.426 116.136C158.706 116.456 158.114 116.904 157.65 117.48V115.944H154.698V133.8ZM161.466 126.408C160.778 126.408 160.154 126.24 159.594 125.904C159.05 125.568 158.618 125.104 158.298 124.512C157.994 123.92 157.842 123.24 157.842 122.472C157.842 121.704 157.994 121.024 158.298 120.432C158.618 119.84 159.05 119.376 159.594 119.04C160.154 118.704 160.778 118.536 161.466 118.536C162.186 118.536 162.818 118.712 163.362 119.064C163.922 119.4 164.362 119.864 164.682 120.456C165.002 121.048 165.162 121.72 165.162 122.472C165.162 123.224 165.002 123.904 164.682 124.512C164.362 125.104 163.922 125.568 163.362 125.904C162.818 126.24 162.186 126.408 161.466 126.408ZM170.823 129H173.967V121.344C173.967 120.496 174.215 119.816 174.711 119.304C175.207 118.792 175.839 118.536 176.607 118.536C177.375 118.536 178.007 118.792 178.503 119.304C178.999 119.8 179.247 120.48 179.247 121.344V129H182.391V120.6C182.391 119.624 182.183 118.768 181.767 118.032C181.351 117.28 180.767 116.696 180.015 116.28C179.279 115.864 178.431 115.656 177.471 115.656C176.719 115.656 176.039 115.792 175.431 116.064C174.823 116.32 174.335 116.712 173.967 117.24V110.832H170.823V129ZM185.05 114.48H188.194V111.12H185.05V114.48ZM185.05 129H188.194V115.944H185.05V129ZM197.385 129.288C198.329 129.288 199.201 129.128 200.001 128.808C200.801 128.472 201.489 128.016 202.065 127.44C202.641 126.848 203.057 126.184 203.313 125.448L200.553 124.2C200.297 124.888 199.889 125.432 199.329 125.832C198.785 126.216 198.137 126.408 197.385 126.408C196.697 126.408 196.081 126.24 195.537 125.904C195.009 125.568 194.593 125.104 194.289 124.512C193.985 123.904 193.833 123.224 193.833 122.472C193.833 121.704 193.985 121.024 194.289 120.432C194.593 119.84 195.009 119.376 195.537 119.04C196.081 118.704 196.697 118.536 197.385 118.536C198.137 118.536 198.785 118.736 199.329 119.136C199.889 119.536 200.297 120.064 200.553 120.72L203.313 119.52C203.041 118.752 202.617 118.08 202.041 117.504C201.465 116.912 200.777 116.456 199.977 116.136C199.177 115.816 198.313 115.656 197.385 115.656C196.089 115.656 194.921 115.952 193.881 116.544C192.857 117.136 192.049 117.944 191.457 118.968C190.865 119.992 190.569 121.152 190.569 122.448C190.569 123.744 190.865 124.912 191.457 125.952C192.049 126.976 192.857 127.792 193.881 128.4C194.921 128.992 196.089 129.288 197.385 129.288ZM210.666 129.288C211.658 129.288 212.522 129.12 213.258 128.784C213.994 128.448 214.57 127.984 214.986 127.392C215.402 126.784 215.61 126.088 215.61 125.304C215.61 124.392 215.322 123.608 214.746 122.952C214.17 122.296 213.338 121.816 212.25 121.512L210.162 120.888C209.714 120.76 209.346 120.592 209.058 120.384C208.77 120.176 208.626 119.888 208.626 119.52C208.626 119.136 208.778 118.824 209.082 118.584C209.386 118.344 209.802 118.224 210.33 118.224C210.986 118.224 211.578 118.4 212.106 118.752C212.65 119.104 213.026 119.576 213.234 120.168L215.634 119.04C215.234 117.984 214.562 117.16 213.618 116.568C212.674 115.96 211.586 115.656 210.354 115.656C209.41 115.656 208.57 115.824 207.834 116.16C207.114 116.496 206.546 116.968 206.13 117.576C205.73 118.168 205.53 118.864 205.53 119.664C205.53 120.56 205.81 121.336 206.37 121.992C206.946 122.648 207.786 123.136 208.89 123.456L211.026 124.056C211.442 124.168 211.794 124.336 212.082 124.56C212.386 124.768 212.538 125.056 212.538 125.424C212.538 125.856 212.362 126.2 212.01 126.456C211.674 126.696 211.226 126.816 210.666 126.816C209.93 126.816 209.266 126.608 208.674 126.192C208.082 125.776 207.61 125.2 207.258 124.464L204.906 125.592C205.29 126.712 205.994 127.608 207.018 128.28C208.058 128.952 209.274 129.288 210.666 129.288Z" fill="white"/>
</g>
<defs>
<clipPath id="clip0_0_718">
<rect width="354" height="158" fill="white"/>
</clipPath>
</defs>
</svg>
