<svg width="155" height="182" viewBox="0 0 155 182" fill="none" xmlns="http://www.w3.org/2000/svg">
<g clip-path="url(#clip0_0_418)">
<rect width="155" height="182" rx="8" fill="#F6A560"/>
<path d="M32.3838 153.288C33.7598 153.288 34.9758 153 36.0318 152.424C37.1038 151.848 37.9438 151.056 38.5518 150.048C39.1598 149.04 39.4638 147.896 39.4638 146.616V135.12H36.1998V146.448C36.1998 147.2 36.0318 147.872 35.6958 148.464C35.3758 149.04 34.9278 149.496 34.3518 149.832C33.7918 150.152 33.1358 150.312 32.3838 150.312C31.6478 150.312 30.9918 150.152 30.4158 149.832C29.8398 149.496 29.3838 149.04 29.0478 148.464C28.7278 147.872 28.5678 147.2 28.5678 146.448V135.12H25.3038V146.616C25.3038 147.896 25.6078 149.04 26.2158 150.048C26.8238 151.056 27.6558 151.848 28.7118 152.424C29.7838 153 31.0078 153.288 32.3838 153.288ZM42.7224 153H45.9864V135.12H42.7224V153ZM48.0575 153.96H51.5135L59.4815 134.16H56.0495L48.0575 153.96ZM68.4541 153.288C69.8301 153.288 71.0461 153 72.1021 152.424C73.1741 151.848 74.0141 151.056 74.6221 150.048C75.2301 149.04 75.5341 147.896 75.5341 146.616V135.12H72.2701V146.448C72.2701 147.2 72.1021 147.872 71.7661 148.464C71.4461 149.04 70.9981 149.496 70.4221 149.832C69.8621 150.152 69.2061 150.312 68.4541 150.312C67.7181 150.312 67.0621 150.152 66.4861 149.832C65.9101 149.496 65.4541 149.04 65.1181 148.464C64.7981 147.872 64.6381 147.2 64.6381 146.448V135.12H61.3741V146.616C61.3741 147.896 61.6781 149.04 62.2861 150.048C62.8941 151.056 63.7261 151.848 64.7821 152.424C65.8541 153 67.0781 153.288 68.4541 153.288ZM77.3287 153H81.0727L85.0087 146.952L88.9207 153H92.6647L86.8327 144L92.6167 135.12H88.8727L85.0087 141.072L81.1207 135.12H77.3767L83.1847 144L77.3287 153Z" fill="white"/>
<circle cx="117.913" cy="40" r="14" stroke="#030303" stroke-width="4"/>
<rect x="69.9126" y="24" width="32" height="32" fill="#EB7565"/>
<rect x="69.9126" y="56" width="4" height="4" fill="#030303"/>
<rect x="83.9126" y="56" width="4" height="4" fill="#030303"/>
<rect x="97.9126" y="56" width="4" height="4" fill="#030303"/>
<rect x="69.9126" y="70" width="4" height="4" fill="#030303"/>
<rect x="83.9126" y="70" width="4" height="4" fill="#030303"/>
<rect x="97.9126" y="70" width="4" height="4" fill="#030303"/>
<rect x="69.9126" y="84" width="4" height="4" fill="#030303"/>
<rect x="83.9126" y="84" width="4" height="4" fill="#030303"/>
<rect x="97.9126" y="84" width="4" height="4" fill="#030303"/>
<path fill-rule="evenodd" clip-rule="evenodd" d="M101.913 56L133.913 88V56H101.913Z" fill="#FFF7F0"/>
</g>
<defs>
<clipPath id="clip0_0_418">
<rect width="155" height="182" fill="white"/>
</clipPath>
</defs>
</svg>
